<svg xmlns="http://www.w3.org/2000/svg" width="1600" height="900" viewBox="0 0 1600 900">
  <defs>
    <linearGradient id="gl" x1="0" x2="1" y1="0" y2="1">
      <stop offset="0%" stop-color="#eaf4f2"/>
      <stop offset="100%" stop-color="#ffffff"/>
    </linearGradient>
  </defs>
  <rect width="1600" height="900" fill="url(#gl)"/>
  <g stroke="#2E7D6D" stroke-opacity=".20">
    <path d="M0 120 L1600 220" />
    <path d="M0 260 L1600 360" />
    <path d="M0 420 L1600 520" />
    <path d="M0 600 L1600 700" />
  </g>
  <g stroke="#3A3A3A" stroke-opacity=".10">
    <path d="M120 0 L220 900"/>
    <path d="M340 0 L440 900"/>
    <path d="M560 0 L660 900"/>
    <path d="M780 0 L880 900"/>
    <path d="M1000 0 L1100 900"/>
    <path d="M1220 0 L1320 900"/>
    <path d="M1440 0 L1540 900"/>
  </g>
  <g fill="#2E7D6D" opacity=".08">
    <circle cx="240" cy="160" r="80"/>
    <circle cx="1080" cy="500" r="120"/>
    <circle cx="760" cy="740" r="60"/>
  </g>
</svg>
